name C:\Users\u0101727\Documents\MyRepositories\upper-imu-dc\Results\main_mocap_tracking\Case_10\kinematics.mot
datacolumns 10
datarows 18
range 5.00000000 5.17000000
endheader 
time	clav_prot	clav_elev	scapula_abduction	scapula_elevation	scapula_upward_rot	scapula_winging	plane_elv	shoulder_elv	axial_rot	
          5.00000000	        -27.86399805	          4.70917432	         -6.39484830	         -3.04629671	         38.79704226	         -3.56587895	         73.34535511	         47.40868985	        -26.44309865	
          5.01000000	        -27.71344052	          4.46397437	         -6.50424344	         -3.12864344	         38.22414065	         -3.37335210	         73.07486519	         46.99152263	        -26.10146555	
          5.02000000	        -27.57052042	          4.21808674	         -6.62023407	         -3.21146240	         37.65751266	         -3.18133495	         72.80813535	         46.57970760	        -25.71150587	
          5.03000000	        -27.43292929	          3.97383717	         -6.73742267	         -3.29342440	         37.09997608	         -2.99061547	         72.54316128	         46.17011202	        -25.25634759	
          5.04000000	        -27.29762515	          3.73222917	         -6.84888106	         -3.37409163	         36.55415211	         -2.80162748	         72.27569327	         45.75933148	        -24.71992428	
          5.05000000	        -27.16149659	          3.49282230	         -6.94779125	         -3.45394811	         36.02179495	         -2.61435334	         71.99974444	         45.34477380	        -24.09713161	
          5.06000000	        -27.02220284	          3.25413269	         -7.02935185	         -3.53409582	         35.50337508	         -2.42840404	         71.70903858	         44.92554072	        -23.40032654	
          5.07000000	        -26.87885843	          3.01439379	         -7.09217572	         -3.61574405	         34.99810911	         -2.24324853	         71.39894156	         44.50270220	        -22.65889119	
          5.08000000	        -26.73225024	          2.77235180	         -7.13855317	         -3.69970917	         34.50441829	         -2.05848693	         71.06802938	         44.07882162	        -21.91220380	
          5.09000000	        -26.58446341	          2.52774846	         -7.17343945	         -3.78613686	         34.02058563	         -1.87403570	         70.71850418	         43.65693894	        -21.19947386	
          5.10000000	        -26.43805551	          2.28129633	         -7.20258311	         -3.87455140	         33.54530886	         -1.69013919	         70.35518853	         43.23945629	        -20.55092871	
          5.11000000	        -26.29510662	          2.03420923	         -7.23054390	         -3.96417500	         33.07794274	         -1.50721519	         69.98353747	         42.82736337	        -19.98327797	
          5.12000000	        -26.15650717	          1.78757137	         -7.25933866	         -4.05432819	         32.61840210	         -1.32562682	         69.60761368	         42.42002319	        -19.49952313	
          5.13000000	        -26.02172938	          1.54190189	         -7.28816228	         -4.14468349	         32.16684013	         -1.14550616	         69.22899645	         42.01547067	        -19.09101240	
          5.14000000	        -25.88913515	          1.29716011	         -7.31422523	         -4.23521960	         31.72325793	         -0.96672151	         68.84708958	         41.61102979	        -18.73983092	
          5.15000000	        -25.75668861	          1.05319349	         -7.33439034	         -4.32588060	         31.28715278	         -0.78899687	         68.46050335	         41.20407391	        -18.42189347	
          5.16000000	        -25.62281403	          0.81039925	         -7.34704294	         -4.41609728	         30.85725799	         -0.61211171	         68.06859258	         40.79280510	        -18.11255690	
          5.17000000	        -25.48708468	          0.57027296	         -7.35350666	         -4.50439997	         30.43143404	         -0.43607994	         67.67222383	         40.37687940	        -17.79488806	
